<mxfile host="app.diagrams.net" modified="2023-10-02T05:48:58.884Z" agent="Mozilla/5.0 (Windows NT 10.0; Win64; x64) AppleWebKit/537.36 (KHTML, like Gecko) Chrome/117.0.0.0 Safari/537.36 Edg/117.0.2045.36" version="22.0.0" etag="vpRqlkhsIHBjZpN9soyY" type="github">
  <diagram name="Page-1" id="xTfdQ4U6YHgr5Ohzd5CC">
    <mxGraphModel>
      <root>
        <mxCell id="0" />
        <mxCell id="1" parent="0" />
      </root>
    </mxGraphModel>
  </diagram>
</mxfile>
